<svg xmlns="http://www.w3.org/2000/svg" xmlns:xlink="http://www.w3.org/1999/xlink" width="604pt" height="296" viewBox="0 0 604 222"><g id="graph0" class="graph" transform="scale(1 1) rotate(0) translate(4 218)"><title>fake_coinjoin</title><polygon fill="#fff" stroke="transparent" points="-4 4 -4 -218 600 -218 600 4 -4 4"/><text x="298" y="-7.8" fill="#000" font-family="Times,serif" font-size="14" text-anchor="middle">Blinded ownership attack</text><g id="clust1" class="cluster"><title>cluster_fake1</title><polygon fill="none" stroke="#000" points="8 -31 8 -206 188 -206 188 -31 8 -31"/><text x="98" y="-190.8" fill="#000" font-family="Times,serif" font-size="14" text-anchor="middle">Perceived transaction 1</text></g><g id="clust2" class="cluster"><title>cluster_fake2</title><polygon fill="none" stroke="#000" points="208 -31 208 -206 388 -206 388 -31 208 -31"/><text x="298" y="-190.8" fill="#000" font-family="Times,serif" font-size="14" text-anchor="middle">Perceived transaction 2</text></g><g id="clust3" class="cluster"><title>cluster_actual</title><polygon fill="none" stroke="#000" points="408 -31 408 -206 588 -206 588 -31 408 -31"/><text x="498" y="-190.8" fill="#000" font-family="Times,serif" font-size="14" text-anchor="middle">Actual transaction</text></g><g id="node1" class="node"><title>fake1_in_label</title><text x="48" y="-159.3" fill="#000" font-family="Times,serif" font-size="14" text-anchor="middle">Inputs</text></g><g id="node2" class="node"><title>fake1_out_label</title><text x="148" y="-159.3" fill="#000" font-family="Times,serif" font-size="14" text-anchor="middle">Outputs</text></g><g id="node9" class="node"><title>fake2_in_label</title><text x="248" y="-159.3" fill="#000" font-family="Times,serif" font-size="14" text-anchor="middle">Inputs</text></g><g id="node3" class="node"><title>fake1_in_mine</title><polygon fill="silver" stroke="#000" points="80 -133 16 -133 16 -95 80 -95 80 -133"/><text x="48" y="-117.8" fill="#000" font-family="Times,serif" font-size="14" text-anchor="middle">Mine</text><text x="48" y="-102.8" fill="#000" font-family="Times,serif" font-size="14" text-anchor="middle">1.0 BTC</text></g><g id="node4" class="node"><title>fake1_out_other</title><polygon fill="none" stroke="#000" points="180 -133 116 -133 116 -95 180 -95 180 -133"/><text x="148" y="-117.8" fill="#000" font-family="Times,serif" font-size="14" text-anchor="middle">Other</text><text x="148" y="-102.8" fill="#000" font-family="Times,serif" font-size="14" text-anchor="middle">0.9 BTC</text></g><g id="node8" class="node"><title>fake2_in_other</title><polygon fill="none" stroke="#000" points="280 -133 216 -133 216 -95 280 -95 280 -133"/><text x="248" y="-117.8" fill="#000" font-family="Times,serif" font-size="14" text-anchor="middle">Other</text><text x="248" y="-102.8" fill="#000" font-family="Times,serif" font-size="14" text-anchor="middle">1.0 BTC</text></g><g id="node5" class="node"><title>fake1_in_other</title><polygon fill="none" stroke="#000" points="80 -77 16 -77 16 -39 80 -39 80 -77"/><text x="48" y="-61.8" fill="#000" font-family="Times,serif" font-size="14" text-anchor="middle">Other</text><text x="48" y="-46.8" fill="#000" font-family="Times,serif" font-size="14" text-anchor="middle">1.0 BTC</text></g><g id="node6" class="node"><title>fake1_out_mine</title><polygon fill="silver" stroke="#000" points="180 -77 116 -77 116 -39 180 -39 180 -77"/><text x="148" y="-61.8" fill="#000" font-family="Times,serif" font-size="14" text-anchor="middle">Mine</text><text x="148" y="-46.8" fill="#000" font-family="Times,serif" font-size="14" text-anchor="middle">1.1 BTC</text></g><g id="node7" class="node"><title>fake2_in_mine</title><polygon fill="silver" stroke="#000" points="280 -77 216 -77 216 -39 280 -39 280 -77"/><text x="248" y="-61.8" fill="#000" font-family="Times,serif" font-size="14" text-anchor="middle">Mine</text><text x="248" y="-46.8" fill="#000" font-family="Times,serif" font-size="14" text-anchor="middle">1.0 BTC</text></g><g id="node12" class="node"><title>fake2_out_mine</title><polygon fill="silver" stroke="#000" points="380 -77 316 -77 316 -39 380 -39 380 -77"/><text x="348" y="-61.8" fill="#000" font-family="Times,serif" font-size="14" text-anchor="middle">Mine</text><text x="348" y="-46.8" fill="#000" font-family="Times,serif" font-size="14" text-anchor="middle">1.1 BTC</text></g><g id="node11" class="node"><title>fake2_out_other</title><polygon fill="none" stroke="#000" points="380 -133 316 -133 316 -95 380 -95 380 -133"/><text x="348" y="-117.8" fill="#000" font-family="Times,serif" font-size="14" text-anchor="middle">Other</text><text x="348" y="-102.8" fill="#000" font-family="Times,serif" font-size="14" text-anchor="middle">0.9 BTC</text></g><g id="node10" class="node"><title>fake2_out_label</title><text x="348" y="-159.3" fill="#000" font-family="Times,serif" font-size="14" text-anchor="middle">Outputs</text></g><g id="node15" class="node"><title>actual_in_label</title><text x="448" y="-159.3" fill="#000" font-family="Times,serif" font-size="14" text-anchor="middle">Inputs</text></g><g id="node14" class="node"><title>actual_in_mine2</title><polygon fill="silver" stroke="#000" points="480 -133 416 -133 416 -95 480 -95 480 -133"/><text x="448" y="-117.8" fill="#000" font-family="Times,serif" font-size="14" text-anchor="middle">Mine</text><text x="448" y="-102.8" fill="#000" font-family="Times,serif" font-size="14" text-anchor="middle">1.0 BTC</text></g><g id="node13" class="node"><title>actual_in_mine1</title><polygon fill="silver" stroke="#000" points="480 -77 416 -77 416 -39 480 -39 480 -77"/><text x="448" y="-61.8" fill="#000" font-family="Times,serif" font-size="14" text-anchor="middle">Mine</text><text x="448" y="-46.8" fill="#000" font-family="Times,serif" font-size="14" text-anchor="middle">1.0 BTC</text></g><g id="node18" class="node"><title>actual_out_mine</title><polygon fill="silver" stroke="#000" points="580 -77 516 -77 516 -39 580 -39 580 -77"/><text x="548" y="-61.8" fill="#000" font-family="Times,serif" font-size="14" text-anchor="middle">Mine</text><text x="548" y="-46.8" fill="#000" font-family="Times,serif" font-size="14" text-anchor="middle">1.1 BTC</text></g><g id="node17" class="node"><title>actual_out_other</title><polygon fill="none" stroke="#000" points="580 -133 516 -133 516 -95 580 -95 580 -133"/><text x="548" y="-117.8" fill="#000" font-family="Times,serif" font-size="14" text-anchor="middle">Other</text><text x="548" y="-102.8" fill="#000" font-family="Times,serif" font-size="14" text-anchor="middle">0.9 BTC</text></g><g id="node16" class="node"><title>actual_out_label</title><text x="548" y="-159.3" fill="#000" font-family="Times,serif" font-size="14" text-anchor="middle">Outputs</text></g></g></svg>