<svg xmlns="http://www.w3.org/2000/svg" xmlns:xlink="http://www.w3.org/1999/xlink" width="619pt" height="233pt" viewBox="0 0 619 233"><g id="graph0" class="graph" transform="scale(1 1) rotate(0) translate(4 229)"><title>fake_coinjoin</title><polygon fill="#fff" stroke="transparent" points="-4 4 -4 -229 615 -229 615 4 -4 4"/><text x="305.5" y="-7.8" fill="#000" font-family="Times,serif" font-size="14" text-anchor="middle">Fee overpayment attack</text><g id="clust1" class="cluster"><title>cluster_fake1</title><polygon fill="none" stroke="#000" points="8 -31 8 -217 203 -217 203 -31 8 -31"/><text x="105.5" y="-201.8" fill="#000" font-family="Times,serif" font-size="14" text-anchor="middle">Perceived transaction 1</text><text x="105.5" y="-186.8" fill="#000" font-family="Times,serif" font-size="14" text-anchor="middle">Calculated fee: 0.0001 BTC</text></g><g id="clust2" class="cluster"><title>cluster_fake2</title><polygon fill="none" stroke="#000" points="223 -31 223 -217 418 -217 418 -31 223 -31"/><text x="320.5" y="-201.8" fill="#000" font-family="Times,serif" font-size="14" text-anchor="middle">Perceived transaction 2</text><text x="320.5" y="-186.8" fill="#000" font-family="Times,serif" font-size="14" text-anchor="middle">Calculated fee: 0.0001 BTC</text></g><g id="clust3" class="cluster"><title>cluster_actual</title><polygon fill="none" stroke="#000" points="438 -31 438 -217 603 -217 603 -31 438 -31"/><text x="520.5" y="-201.8" fill="#000" font-family="Times,serif" font-size="14" text-anchor="middle">Actual transaction</text><text x="520.5" y="-186.8" fill="#000" font-family="Times,serif" font-size="14" text-anchor="middle">Fee: 1 BTC</text></g><g id="node1" class="node"><title>fake1_in_label</title><text x="58" y="-155.3" fill="#000" font-family="Times,serif" font-size="14" text-anchor="middle">Inputs</text></g><g id="node2" class="node"><title>fake1_out_label</title><text x="165.5" y="-155.3" fill="#000" font-family="Times,serif" font-size="14" text-anchor="middle">Outputs</text></g><g id="node9" class="node"><title>fake2_in_label</title><text x="273" y="-155.3" fill="#000" font-family="Times,serif" font-size="14" text-anchor="middle">Inputs</text></g><g id="node3" class="node"><title>fake1_in_mine</title><polygon fill="silver" stroke="#000" points="85 -129 31 -129 31 -93 85 -93 85 -129"/><text x="58" y="-107.3" fill="#000" font-family="Times,serif" font-size="14" text-anchor="middle">1 BTC</text></g><g id="node6" class="node"><title>fake1_out_other</title></g><g id="node4" class="node"><title>fake1_in_other</title><polygon fill="none" stroke="#000" points="100 -75 16 -75 16 -39 100 -39 100 -75"/><text x="58" y="-53.3" fill="#000" font-family="Times,serif" font-size="14" text-anchor="middle">0.0001 BTC</text></g><g id="node5" class="node"><title>fake1_out_mine</title><polygon fill="silver" stroke="#000" points="192.5 -75 138.5 -75 138.5 -39 192.5 -39 192.5 -75"/><text x="165.5" y="-53.3" fill="#000" font-family="Times,serif" font-size="14" text-anchor="middle">1 BTC</text></g><g id="node7" class="node"><title>fake2_in_mine</title><polygon fill="silver" stroke="#000" points="300 -75 246 -75 246 -39 300 -39 300 -75"/><text x="273" y="-53.3" fill="#000" font-family="Times,serif" font-size="14" text-anchor="middle">1 BTC</text></g><g id="node8" class="node"><title>fake2_in_other</title><polygon fill="none" stroke="#000" points="315 -129 231 -129 231 -93 315 -93 315 -129"/><text x="273" y="-107.3" fill="#000" font-family="Times,serif" font-size="14" text-anchor="middle">0.0001 BTC</text></g><g id="node12" class="node"><title>fake2_out_mine</title><polygon fill="silver" stroke="#000" points="407.5 -75 353.5 -75 353.5 -39 407.5 -39 407.5 -75"/><text x="380.5" y="-53.3" fill="#000" font-family="Times,serif" font-size="14" text-anchor="middle">1 BTC</text></g><g id="node11" class="node"><title>fake2_out_other</title></g><g id="node10" class="node"><title>fake2_out_label</title><text x="380.5" y="-155.3" fill="#000" font-family="Times,serif" font-size="14" text-anchor="middle">Outputs</text></g><g id="node15" class="node"><title>actual_in_label</title><text x="473" y="-155.3" fill="#000" font-family="Times,serif" font-size="14" text-anchor="middle">Inputs</text></g><g id="node14" class="node"><title>actual_in_mine2</title><polygon fill="silver" stroke="#000" points="500 -129 446 -129 446 -93 500 -93 500 -129"/><text x="473" y="-107.3" fill="#000" font-family="Times,serif" font-size="14" text-anchor="middle">1 BTC</text></g><g id="node13" class="node"><title>actual_in_mine1</title><polygon fill="silver" stroke="#000" points="500 -75 446 -75 446 -39 500 -39 500 -75"/><text x="473" y="-53.3" fill="#000" font-family="Times,serif" font-size="14" text-anchor="middle">1 BTC</text></g><g id="node18" class="node"><title>actual_out_mine</title><polygon fill="silver" stroke="#000" points="592.5 -75 538.5 -75 538.5 -39 592.5 -39 592.5 -75"/><text x="565.5" y="-53.3" fill="#000" font-family="Times,serif" font-size="14" text-anchor="middle">1 BTC</text></g><g id="node17" class="node"><title>actual_out_other</title></g><g id="node16" class="node"><title>actual_out_label</title><text x="565.5" y="-155.3" fill="#000" font-family="Times,serif" font-size="14" text-anchor="middle">Outputs</text></g></g></svg>